<?xml version="1.0" encoding="UTF-8" standalone="no"?>
<svg width="512" height="512" viewBox="0 0 512 512" fill="none" xmlns="http://www.w3.org/2000/svg">
  <rect width="512" height="512" rx="128" fill="url(#paint0_linear)" />
  <path d="M128 192C128 174.327 142.327 160 160 160H352C369.673 160 384 174.327 384 192V320C384 337.673 369.673 352 352 352H160C142.327 352 128 337.673 128 320V192Z" fill="white" fill-opacity="0.24"/>
  <path d="M160 176H352C360.837 176 368 183.163 368 192V320C368 328.837 360.837 336 352 336H160C151.163 336 144 328.837 144 320V192C144 183.163 151.163 176 160 176Z" fill="white" fill-opacity="0.48"/>
  <path d="M176 208C176 199.163 183.163 192 192 192H320C328.837 192 336 199.163 336 208V304C336 312.837 328.837 320 320 320H192C183.163 320 176 312.837 176 304V208Z" fill="white"/>
  <path d="M208 240H304M208 272H272" stroke="url(#paint1_linear)" stroke-width="16" stroke-linecap="round" stroke-linejoin="round"/>
  <path d="M144 368H368M144 400H304" stroke="white" stroke-width="16" stroke-linecap="round" stroke-linejoin="round"/>
  <defs>
    <linearGradient id="paint0_linear" x1="0" y1="0" x2="512" y2="512" gradientUnits="userSpaceOnUse">
      <stop stop-color="#4F46E5"/>
      <stop offset="1" stop-color="#3B82F6"/>
    </linearGradient>
    <linearGradient id="paint1_linear" x1="208" y1="240" x2="304" y2="272" gradientUnits="userSpaceOnUse">
      <stop stop-color="#4F46E5"/>
      <stop offset="1" stop-color="#3B82F6"/>
    </linearGradient>
  </defs>
</svg>
